# xmcd
#
# Track frame offsets:
#	150
#	5834
#	20552
#	37625
#	53004
#	67568
#	75177
#
# Disc length: 1246 seconds
#
# Revision: 0
# Processed by: cddbd v1.5.2PL0 Copyright (c) Steve Scherf et al.
# Submitted via: EasyCDDAExtractor 16.0.8.2
#
DISCID=3c04dc07
DTITLE=Τσιτσάνης Βασίλης - Ανέκδοτες ζωντ. ηχογραφήσεις-Β. Τσιτσάνης
DYEAR=2004
DGENRE=Λαϊκή
TTITLE0=Εισαγωγή Βασίλη Τσιτσάνη
TTITLE1=Συννεφιασμένη Κυριακή
TTITLE2=Με παράσυρε το ρέμμα
TTITLE3=Την αγαπούσα
TTITLE4=Το βαπόρι απ' την Περσία
TTITLE5=Της κοινωνίας η διαφορά
TTITLE6=Της Γερακίνας γιος
EXTD=
EXTT0=
EXTT1=
EXTT2=
EXTT3=
EXTT4=
EXTT5=
EXTT6=
PLAYORDER=
